<svg width="29" height="29" viewBox="0 0 29 29" fill="none" xmlns="http://www.w3.org/2000/svg">
<path d="M23.7091 17.5839C23.0949 16.9444 22.3541 16.6025 21.569 16.6025C20.7902 16.6025 20.0431 16.9381 19.4036 17.5776L17.4027 19.5721C17.2381 19.4835 17.0735 19.4011 16.9152 19.3188C16.6873 19.2049 16.472 19.0972 16.2884 18.9832C14.4142 17.7929 12.7109 16.2416 11.0774 14.2345C10.2859 13.2341 9.75404 12.3919 9.36781 11.5372C9.88701 11.0623 10.3682 10.5684 10.8368 10.0935C11.0141 9.91625 11.1913 9.73263 11.3686 9.55534C12.6983 8.22568 12.6983 6.50346 11.3686 5.1738L9.64007 3.44525C9.44379 3.24896 9.24117 3.04635 9.05122 2.84373C8.67132 2.45117 8.27242 2.04594 7.86086 1.66604C7.24669 1.05819 6.51221 0.735275 5.73974 0.735275C4.96727 0.735275 4.22013 1.05819 3.58696 1.66604C3.58063 1.67237 3.58063 1.67237 3.5743 1.6787L1.42152 3.85047C0.61106 4.66093 0.148846 5.64868 0.0475384 6.79472C-0.104423 8.64358 0.440104 10.3658 0.857997 11.4928C1.88373 14.2598 3.41601 16.8241 5.70175 19.5721C8.47504 22.8836 11.8118 25.4986 15.6235 27.3411C17.0798 28.0313 19.0237 28.848 21.1954 28.9873C21.3284 28.9937 21.4677 29 21.5943 29C23.057 29 24.2853 28.4745 25.2477 27.4297C25.2541 27.4171 25.2667 27.4107 25.2731 27.3981C25.6023 26.9992 25.9822 26.6383 26.3811 26.252C26.6534 25.9924 26.932 25.7202 27.2042 25.4353C27.8311 24.7831 28.1603 24.0233 28.1603 23.2445C28.1603 22.4594 27.8247 21.7059 27.1852 21.0727L23.7091 17.5839ZM25.9759 24.2512C25.9695 24.2512 25.9695 24.2576 25.9759 24.2512C25.7289 24.5172 25.4757 24.7578 25.2034 25.0237C24.7918 25.4163 24.374 25.8278 23.9814 26.29C23.3419 26.9739 22.5884 27.2968 21.6007 27.2968C21.5057 27.2968 21.4044 27.2968 21.3094 27.2904C19.4289 27.1701 17.6813 26.4357 16.3707 25.8088C12.7869 24.0739 9.64007 21.6109 7.02508 18.4894C4.86597 15.887 3.42234 13.481 2.46625 10.8977C1.8774 9.32107 1.66212 8.09272 1.7571 6.93401C1.82042 6.19321 2.10534 5.57903 2.63087 5.0535L4.78999 2.89439C5.10024 2.60313 5.42949 2.44484 5.75241 2.44484C6.1513 2.44484 6.47422 2.68544 6.67683 2.88806C6.68317 2.89439 6.6895 2.90072 6.69583 2.90705C7.08206 3.26796 7.4493 3.64153 7.83554 4.04043C8.03182 4.24304 8.23443 4.44565 8.43705 4.6546L10.1656 6.38316C10.8368 7.05432 10.8368 7.67482 10.1656 8.34599C9.98198 8.5296 9.8047 8.71322 9.62108 8.89051C9.08921 9.43504 8.58268 9.94157 8.03182 10.4354C8.01916 10.4481 8.00649 10.4544 8.00016 10.4671C7.45563 11.0116 7.55694 11.5435 7.67091 11.9044C7.67724 11.9234 7.68358 11.9424 7.68991 11.9614C8.13946 13.0504 8.77263 14.0762 9.73505 15.2982L9.74138 15.3045C11.4889 17.4573 13.3315 19.1352 15.3639 20.4205C15.6235 20.5852 15.8895 20.7181 16.1427 20.8448C16.3707 20.9587 16.586 21.0664 16.7696 21.1804C16.7949 21.193 16.8202 21.212 16.8456 21.2247C17.0608 21.3323 17.2634 21.383 17.4724 21.383C17.9979 21.383 18.3272 21.0537 18.4348 20.9461L20.6003 18.7806C20.8155 18.5654 21.1574 18.3058 21.5563 18.3058C21.9489 18.3058 22.2718 18.5527 22.4681 18.768C22.4744 18.7743 22.4744 18.7743 22.4808 18.7806L25.9695 22.2694C26.6217 22.9152 26.6217 23.5801 25.9759 24.2512Z" fill="black"/>
</svg>
